HIERARCHY
ROOT hip
{
  OFFSET 0 0 0
  CHANNELS 6 Xposition Yposition Zposition Zrotation Yrotation Xrotation
  JOINT abdomen
  {
    OFFSET 0 20.6881 -0.73152
    CHANNELS 3 Zrotation Xrotation Yrotation
    JOINT chest
    {
      OFFSET 0 11.7043 -0.48768
      CHANNELS 3 Zrotation Xrotation Yrotation
      JOINT neck
      {
        OFFSET 0 22.1894 -2.19456
        CHANNELS 3 Zrotation Xrotation Yrotation
        JOINT head
        {
          OFFSET -0.24384 7.07133 1.2192
          CHANNELS 3 Zrotation Xrotation Yrotation
          JOINT leftEye
          {
            OFFSET 4.14528 8.04674 8.04672
            CHANNELS 3 Zrotation Xrotation Yrotation
            End Site
            {
              OFFSET 1 0 0
            }
          }
          JOINT rightEye
          {
            OFFSET -3.6576 8.04674 8.04672
            CHANNELS 3 Zrotation Xrotation Yrotation
            End Site
            {
              OFFSET 1 0 0
            }
          }
        }
      }
      JOINT rCollar
      {
        OFFSET -2.68224 19.2634 -4.8768
        CHANNELS 3 Zrotation Xrotation Yrotation
        JOINT rShldr
        {
          OFFSET -8.77824 -1.95073 1.46304
          CHANNELS 3 Zrotation Xrotation Yrotation
          JOINT rForeArm
          {
            OFFSET -28.1742 -1.7115 0.48768
            CHANNELS 3 Zrotation Xrotation Yrotation
            JOINT rHand
            {
              OFFSET -22.5879 0.773209 7.07136
              CHANNELS 3 Zrotation Xrotation Yrotation
              JOINT rThumb1
              {
                OFFSET -1.2192 -0.487915 3.41376
                CHANNELS 3 Zrotation Xrotation Yrotation
                JOINT rThumb2
                {
                  OFFSET -3.37035 -0.52449 3.41376
                  CHANNELS 3 Zrotation Xrotation Yrotation
                  End Site
                  {
                    OFFSET -1.78271 -1.18214 1.43049
                  }
                }
              }
              JOINT rIndex1
              {
                OFFSET -7.75947 0.938293 5.60832
                CHANNELS 3 Zrotation Xrotation Yrotation
                JOINT rIndex2
                {
                  OFFSET -2.54057 -0.884171 1.56538
                  CHANNELS 3 Zrotation Xrotation Yrotation
                  End Site
                  {
                    OFFSET -1.62519 -0.234802 1.16502
                  }
                }
              }
              JOINT rMid1
              {
                OFFSET -8.24714 1.18213 3.41376
                CHANNELS 3 Zrotation Xrotation Yrotation
                JOINT rMid2
                {
                  OFFSET -3.10165 -0.590103 1.0647
                  CHANNELS 3 Zrotation Xrotation Yrotation
                  End Site
                  {
                    OFFSET -2.48547 -0.328903 0.83742
                  }
                }
              }
              JOINT rRing1
              {
                OFFSET -8.82822 0.546677 1.51678
                CHANNELS 3 Zrotation Xrotation Yrotation
                JOINT rRing2
                {
                  OFFSET -2.60934 -0.819778 -0.0198488
                  CHANNELS 3 Zrotation Xrotation Yrotation
                  End Site
                  {
                    OFFSET -2.33842 -0.294052 0.168128
                  }
                }
              }
              JOINT rPinky1
              {
                OFFSET -8.27202 -0.0477905 -0.4584
                CHANNELS 3 Zrotation Xrotation Yrotation
                JOINT rPinky2
                {
                  OFFSET -1.82734 -0.647385 -0.700984
                  CHANNELS 3 Zrotation Xrotation Yrotation
                  End Site
                  {
                    OFFSET -1.69225 -0.51767 -0.607171
                  }
                }
              }
            }
          }
        }
      }
      JOINT lCollar
      {
        OFFSET 2.68224 19.2634 -4.8768
        CHANNELS 3 Zrotation Xrotation Yrotation
        JOINT lShldr
        {
          OFFSET 8.77824 -1.95073 1.46304
          CHANNELS 3 Zrotation Xrotation Yrotation
          JOINT lForeArm
          {
            OFFSET 28.1742 -1.7115 0.48768
            CHANNELS 3 Zrotation Xrotation Yrotation
            JOINT lHand
            {
              OFFSET 22.5879 0.773209 7.07136
              CHANNELS 3 Zrotation Xrotation Yrotation
              JOINT lThumb1
              {
                OFFSET 1.2192 -0.487915 3.41376
                CHANNELS 3 Zrotation Xrotation Yrotation
                JOINT lThumb2
                {
                  OFFSET 3.37035 -0.52449 3.41376
                  CHANNELS 3 Zrotation Xrotation Yrotation
                  End Site
                  {
                    OFFSET 1.78271 -1.18214 1.43049
                  }
                }
              }
              JOINT lIndex1
              {
                OFFSET 7.75947 0.938293 5.60832
                CHANNELS 3 Zrotation Xrotation Yrotation
                JOINT lIndex2
                {
                  OFFSET 2.54057 -0.884171 1.56538
                  CHANNELS 3 Zrotation Xrotation Yrotation
                  End Site
                  {
                    OFFSET 1.62519 -0.234802 1.16502
                  }
                }
              }
              JOINT lMid1
              {
                OFFSET 8.24714 1.18213 3.41376
                CHANNELS 3 Zrotation Xrotation Yrotation
                JOINT lMid2
                {
                  OFFSET 3.10165 -0.590103 1.0647
                  CHANNELS 3 Zrotation Xrotation Yrotation
                  End Site
                  {
                    OFFSET 2.48547 -0.328903 0.83742
                  }
                }
              }
              JOINT lRing1
              {
                OFFSET 8.82822 0.546677 1.51678
                CHANNELS 3 Zrotation Xrotation Yrotation
                JOINT lRing2
                {
                  OFFSET 2.60934 -0.819778 -0.0198488
                  CHANNELS 3 Zrotation Xrotation Yrotation
                  End Site
                  {
                    OFFSET 2.33842 -0.294052 0.168128
                  }
                }
              }
              JOINT lPinky1
              {
                OFFSET 8.27202 -0.0477905 -0.4584
                CHANNELS 3 Zrotation Xrotation Yrotation
                JOINT lPinky2
                {
                  OFFSET 1.82734 -0.647385 -0.700984
                  CHANNELS 3 Zrotation Xrotation Yrotation
                  End Site
                  {
                    OFFSET 1.69225 -0.51767 -0.607171
                  }
                }
              }
            }
          }
        }
      }
    }
  }
  JOINT rButtock
  {
    OFFSET -8.77824 4.35084 1.2192
    CHANNELS 3 Zrotation Xrotation Yrotation
    JOINT rThigh
    {
      OFFSET 0 -1.70687 -2.19456
      CHANNELS 3 Zrotation Xrotation Yrotation
      JOINT rShin
      {
        OFFSET 0 -36.8199 0.73152
        CHANNELS 3 Zrotation Xrotation Yrotation
        JOINT rFoot
        {
          OFFSET 0.73152 -45.1104 -5.12064
          CHANNELS 3 Zrotation Xrotation Yrotation
          End Site
          {
            OFFSET -1.1221 -3.69964 12.103
          }
        }
      }
    }
  }
  JOINT lButtock
  {
    OFFSET 8.77824 4.35084 1.2192
    CHANNELS 3 Zrotation Xrotation Yrotation
    JOINT lThigh
    {
      OFFSET 0 -1.70687 -2.19456
      CHANNELS 3 Zrotation Xrotation Yrotation
      JOINT lShin
      {
        OFFSET 0 -36.8199 0.73152
        CHANNELS 3 Zrotation Xrotation Yrotation
        JOINT lFoot
        {
          OFFSET -0.73152 -45.1104 -5.12064
          CHANNELS 3 Zrotation Xrotation Yrotation
          End Site
          {
            OFFSET 1.1221 -3.69964 12.103
          }
        }
      }
    }
  }
}
MOTION
Frames:	8
Frame Time:	0.00833333
0.0 0.0 0.0 0.0 0.0 0.0 0.0 0.0 0.0 0.0 0.0 0.0 0.0 0.0 0.0 0.0 0.0 0.0 0.0 0.0 0.0 0.0 0.0 0.0 0.0 0.0 0.0 0.0 0.0 0.0 0.0 0.0 0.0 0.0 0.0 0.0 0.0 0.0 0.0 0.0 0.0 0.0 0.0 0.0 0.0 0.0 0.0 0.0 0.0 0.0 0.0 0.0 0.0 0.0 0.0 0.0 0.0 0.0 0.0 0.0 0.0 0.0 0.0 0.0 0.0 0.0 0.0 0.0 0.0 0.0 0.0 0.0 0.0 0.0 0.0 0.0 0.0 0.0 0.0 0.0 0.0 0.0 0.0 0.0 0.0 0.0 0.0 0.0 0.0 0.0 0.0 0.0 0.0 0.0 0.0 0.0 0.0 0.0 0.0 0.0 0.0 0.0 0.0 0.0 0.0 0.0 0.0 0.0 0.0 0.0 0.0 0.0 0.0 0.0 0.0 0.0 0.0 0.0 0.0 0.0 0.0 0.0 0.0 0.0 0.0 0.0 0.0 0.0 0.0 0.0 0.0 0.0
3.9232000000000005 58.438500000000005 -2.661 -6.183476 -61.706647 9.31957 -2.607257 21.285367 4.98533 -0.833651 -12.484683 6.206924 -13.592722 21.097897 -53.169155 41.701024 -13.920135 42.974267 -0.000573 0.0 -0.001469 -0.000427 -0.0 0.000884 -0.503445 2.912826 0.661679 66.387796 9.068181 49.527379 -6.347877 19.349554 125.26954 -7.416322 -32.48909 -7.40806 67.406094 -47.160957 22.863237 -77.245041 39.170861 44.042164 -42.783708 38.494546 33.299114 -0.150548 10.284784 -0.24748 -10.969118 25.77666 7.634625 5.799385 -7.508715 -0.836017 -0.014771 -1.353929 -0.425339 -154.282784 -64.054566 -178.562701 -45.475393 -48.231475 -44.249436 1.068497 -5.892013 -2.499161 -3.121245 -64.709147 13.999472 66.126759 -30.820415 122.642057 175.325524 -6.603256 98.668398 8.187177 17.551706 0.132839 170.923653 -8.605545 -89.950969 81.251251 6.901346 -28.355006 -15.043643 -27.012073 5.678064 -171.182453 -47.477576 -99.910945 175.277666 -49.29465 -144.27502 -6.641928 -10.696143 0.776378 145.090257 -2.091109 178.471661 152.97846 -20.150131 176.258291 143.486423 6.92795 140.313177 -4.324588 4.993991 0.523635 -0.000553 -0.001182 0.000137 -1.167319 -44.259406 -1.372431 67.696396 66.83054 16.737013 131.066169 73.487244 135.553998 -179.992024 75.749585 -0.004606 -179.126331 5.710605 43.063209 61.127872 34.407821 -23.32774 -127.500334 -5.293867 27.397363
5.9493 58.1554 -4.0068 -4.734798 -58.099044 8.434534 -1.9301 21.426285 0.543235 -0.042261 -12.682042 9.896969 -14.19067 28.380708 -94.053177 48.926277 13.948858 69.921579 6.4e-05 0.0 0.001972 6.4e-05 0.0 0.001972 -157.710556 -21.232975 165.306042 102.339759 31.086539 -108.173288 52.877204 76.511917 74.711675 -15.123396 -2.571675 -2.325077 -4.993107 4.847169 0.972311 14.374675 -18.22545 -7.079594 -151.248508 -16.96257 121.098043 179.672577 -47.100961 113.536867 15.573509 -46.485796 -2.566178 -13.953855 36.930864 11.020411 0.006513 1.347358 0.422757 -155.499617 -0.761605 171.935714 -32.204686 -42.534585 -31.151888 -150.846579 26.388667 -146.300836 154.406301 3.099557 -160.370084 79.369673 -53.056487 19.720619 8.743302 74.075777 101.544078 -172.988139 -19.338863 -143.164227 -126.161602 -48.194294 -63.676932 31.586301 -16.789769 15.173804 -10.306976 -18.231329 4.594018 6.53653 25.115974 -7.287647 -20.369818 -56.096497 0.624433 171.35252 -28.698885 -144.121866 0.007821 -0.655917 0.206123 -7.024969 -71.414832 12.83513 98.002834 -47.414403 96.241829 168.484946 71.016823 145.152734 -179.99829 75.749102 -0.001552 175.484542 28.745017 24.424562 84.139506 42.401277 28.61384 90.495059 51.131648 169.809896 0.002309 0.00054 0.002018 0.601475 -72.783945 -179.246451 25.33051 -80.009093 101.666952 -24.26867 59.034873 113.946227
8.0037 57.8484 -5.392 -3.239737 -54.669149 7.596325 -1.420754 16.603959 -174.811805 0.818588 7.929909 -175.701739 -14.238633 27.962041 -90.793053 48.788482 10.597343 65.418214 -0.000138 0.0 -0.000381 -0.000138 0.0 -0.000381 4.113736 -40.461384 -7.792967 87.192907 -0.859917 20.539456 168.260103 -51.340446 11.60026 -157.373984 25.493532 133.509136 -57.134349 35.868506 27.808999 -0.075106 -7.87585 22.43899 -17.213506 22.268879 11.84703 -10.092627 23.70646 6.71328 -165.099911 -20.771647 144.854773 -1.050849 11.581246 2.333061 -0.002815 -0.314679 -0.099534 -156.423811 -23.642302 174.620925 -150.342355 30.126965 -146.175535 16.60388 43.983321 6.123878 2.846141 14.249665 -3.556637 95.38973 -18.16025 -140.98053 -170.009407 -23.929865 110.485692 12.795907 26.496187 -1.368064 -178.253839 -19.096652 -88.973387 32.818382 -29.734233 1.880135 178.200705 -57.345977 -117.705366 164.44375 -28.349367 -117.613118 18.334804 36.862973 -13.787387 148.255889 31.192951 -134.668159 145.021212 -4.684477 177.649594 150.944748 -30.671573 174.140123 144.160032 8.933685 140.920128 123.353889 -33.179471 121.174341 179.97847 75.750341 0.015879 172.47831 23.794106 172.255115 -99.874027 -75.864134 -121.902987 -175.515631 2.475315 -161.75395 -179.997486 75.748612 -0.002907 177.890683 3.910966 104.893371 86.728465 -9.754149 177.762008 132.671076 -38.687148 -137.479464
10.0568 57.596599999999995 -6.8456 -1.836339 -51.431756 6.896938 -1.660884 21.136679 3.59007 -0.464593 -12.77522 5.124379 -9.378871 34.057203 -135.611279 41.22166 39.536918 97.267917 -0.00279 -0.0 0.003127 -0.003542 0.0 -0.002025 -136.034672 49.280342 140.096015 123.065758 -20.704735 -170.937961 46.540857 51.956559 88.744977 -21.98638 16.325703 3.295317 169.265117 -26.88919 86.693649 -122.76826 21.916426 62.114355 -176.009177 -55.244858 118.809905 8.96892 11.295066 -6.802449 -6.372206 16.494377 4.126885 12.073399 -26.819247 -1.523049 -145.114827 -0.370928 -179.014032 -44.870194 87.394518 58.064964 -157.685343 58.513245 -150.632771 -144.175917 0.229847 -138.951047 -0.597533 -3.74889 0.812052 28.24098 60.670948 -119.599641 -152.137986 50.124301 -96.977407 179.182989 3.378225 -143.500794 168.058111 -5.735085 -89.867281 -7.182399 -55.704977 -13.306195 15.448426 20.492157 -10.485232 -0.717914 11.508483 -1.691609 -0.642461 -1.886321 0.348679 173.198755 -34.346487 -143.89257 145.103431 3.960475 -179.626444 149.217136 79.866213 -163.226704 -18.648817 64.962372 -13.048159 158.439585 46.399603 148.549426 -0.012703 -0.000776 -0.011768 -16.929202 -50.996444 34.852538 79.369671 20.802602 -107.904614 75.099622 -27.902657 3.854092 0.002441 -0.000777 1.1e-05 -4.031308 -71.001677 -178.109878 -151.471346 -76.770751 -157.708954 -46.943147 1.127323 -167.604831
12.059899999999999 57.5354 -8.347100000000001 -0.665981 -48.292535 6.430412 -1.528231 20.750881 1.142265 0.010775 -12.834749 6.691646 -6.978772 35.109023 -149.473763 33.979442 46.184518 109.388525 0.00031 0.0 0.002115 -0.000259 0.0 -0.000585 -8.99471 33.365458 10.487362 78.143134 -12.281812 104.250777 166.248196 -15.010663 25.191324 -153.373469 31.895459 129.858166 -5.895418 5.699878 1.191879 -138.94288 -43.09158 115.851388 -162.573548 -37.361291 122.654175 -20.097697 44.401907 11.066737 -155.885816 7.159917 140.577296 -127.015784 53.021518 116.386929 -0.001338 -0.322963 -0.102483 9.593772 9.318974 1.172351 -153.599273 42.873589 -148.547808 -8.673422 -21.213604 -10.669153 -1.125868 -7.360448 1.562579 89.989686 -26.648397 -157.562615 -178.831829 -35.55776 115.038377 9.547745 18.776946 0.008822 174.153935 -11.817564 -89.872831 131.044768 13.048603 -64.847869 -24.569704 -43.045676 5.467965 10.962793 32.374938 -10.21796 153.54878 13.080572 -139.02217 163.590254 -5.911938 -143.094745 0.114889 -5.227634 1.649636 -6.863949 32.334061 -5.230954 145.852317 14.24623 142.421203 153.543197 30.128392 145.135403 179.982909 75.751491 0.011942 165.3734 19.961601 96.521046 85.683717 -20.299216 -167.812443 -5.854197 -32.585996 50.447319 179.984989 75.748205 0.010091 178.773505 10.164524 3.605431 -158.276823 82.274631 69.850413 -70.447307 87.949813 152.925399
13.9716 57.701499999999996 -9.816600000000001 0.188558 -45.156774 6.201075 -0.868663 15.465052 -171.456974 1.347822 7.932866 177.992575 7.47823 23.981393 89.173832 -43.809142 11.59403 -112.231949 -0.002659 0.0 -0.001383 -0.00197 -0.0 0.003735 -151.510485 16.626976 156.827457 167.275203 -22.841454 -120.767993 172.600394 17.663826 41.010647 -158.525576 23.713977 134.437516 9.163823 -9.156269 -0.68386 -1.849122 -0.926243 -4.812462 -155.072251 -24.075432 122.118462 -150.935713 4.560428 117.924236 -158.132848 0.934644 141.929641 -168.045759 -19.275169 143.884996 -145.123452 1.606735 -179.63171 2.132863 -44.966678 -18.32804 -90.826804 -49.504866 -89.147807 22.206936 58.464472 7.588624 150.905171 18.925454 -156.121034 69.714777 46.866161 4.622642 172.076785 -7.805107 115.738836 6.935098 11.823413 0.787191 168.889939 -6.569201 -89.906705 30.141487 -30.712797 -5.692533 20.339352 25.158471 -14.309014 -24.276607 -22.736474 1.162234 -23.853634 -61.271515 -1.366402 -1.370399 4.848167 -0.80279 -0.003735 0.66362 -0.209527 -8.074454 21.953151 -3.160614 105.770546 -44.147566 103.907475 146.100272 10.423784 142.082816 0.013819 -0.000285 0.011688 -28.160951 -53.537705 74.171255 86.38477 -27.635216 -178.726307 -146.904732 -59.301205 -42.149569 -0.004521 -0.000287 -0.002578 -0.307215 -61.092448 -0.224623 -163.152906 73.169082 27.218921 121.583271 -3.610662 -176.486654
15.798100000000002 57.8883 -11.2039 0.71741 -42.008373 6.114846 -0.450292 19.493631 -8.174318 1.692221 -12.522479 13.683303 -14.439217 26.446092 -80.385412 45.769881 1.379783 51.985728 -0.002602 -0.0 0.003845 -0.002602 -0.0 0.003845 -40.37727 63.016768 42.989468 92.21594 -30.487608 147.050021 178.733058 -18.16725 44.428415 -162.862504 15.335153 137.97444 176.278451 -20.898971 88.579142 147.308603 -53.156302 105.531508 5.532333 -9.474496 -2.798548 18.676014 -8.603506 -1.547318 -162.915595 -13.74125 144.181505 10.248677 -21.208461 -1.149816 -145.122172 1.19151 -179.503151 11.988934 36.237767 -4.892944 -30.766415 -41.681161 -29.737574 114.429493 86.767336 -74.306646 2.294632 -76.769989 21.820776 -88.709438 6.521887 45.389371 166.441249 -78.069044 -93.674674 -172.480996 -20.584652 -143.041829 3.224958 3.151924 -0.581707 -28.4662 -43.182621 14.954816 2.376271 3.755326 -1.395836 173.051584 -28.412408 -108.191088 -3.165285 -9.625454 1.560451 60.02233 63.016261 -53.011964 0.05971 6.263506 -1.972536 139.229716 62.43252 -152.817473 -17.40085 60.948202 -12.818785 166.517788 67.575864 147.965154 179.997031 75.749436 0.003786 160.695419 17.003219 90.957926 87.36437 -16.992084 165.211581 87.90115 54.806187 10.375333 -0.049527 0.001279 -0.038082 2.763454 -55.342871 11.773932 160.230524 68.241759 34.511531 -38.665247 14.864901 -173.038158
